HIERARCHY
ROOT root
{
	OFFSET	0	13.1	24.9
	CHANNELS 6  Xposition Yposition Zposition Xrotation Yrotation Zrotation
	JOINT spine_1
	{
		OFFSET	0	9.99999	0
		CHANNELS 3  Xrotation Yrotation Zrotation
		JOINT spine_2
		{
			OFFSET	0	112	-10
			CHANNELS 3  Xrotation Yrotation Zrotation
			JOINT spine_3
			{
				OFFSET	0	206.5	19.3
				CHANNELS 3  Xrotation Yrotation Zrotation
				JOINT spine_4
				{
					OFFSET	0	110.4	14.6
					CHANNELS 3  Xrotation Yrotation Zrotation
					JOINT neck_1
					{
						OFFSET	0	71.8	-50.3
						CHANNELS 3  Xrotation Yrotation Zrotation
						JOINT neck_2
						{
							OFFSET	0	86.2	-25.8
							CHANNELS 3  Xrotation Yrotation Zrotation
							JOINT head_ee
							{
								OFFSET	0	179.8	-8.7
								CHANNELS 3  Xrotation Yrotation Zrotation
								End Site
								{
									OFFSET	1	0	0
								}
							}
						}
					}
					JOINT left_clavicle
					{
						OFFSET	-43.2	22.4	-70.8
						CHANNELS 3  Xrotation Yrotation Zrotation
						JOINT left_shoulder
						{
							OFFSET	-93.9	-5.79999	48.7
							CHANNELS 3  Xrotation Yrotation Zrotation
							JOINT left_elbow
							{
								OFFSET	-291.4	-30.8	15.2
								CHANNELS 3  Xrotation Yrotation Zrotation
								JOINT left_lowarm_twist
								{
									OFFSET	-110.7	-3.89999	13.6
									CHANNELS 3  Xrotation Yrotation Zrotation
									JOINT left_hand
									{
										OFFSET	-110.7	-3.89999	13.6
										CHANNELS 3  Xrotation Yrotation Zrotation
										JOINT left_ee
										{
											OFFSET	-80.8	-5.10001	12.1
											CHANNELS 3  Xrotation Yrotation Zrotation
											End Site
											{
												OFFSET	1	0	0
											}
										}
									}
								}
							}
						}
					}
					JOINT right_clavicle
					{
						OFFSET	43.2	22.4	-70.8
						CHANNELS 3  Xrotation Yrotation Zrotation
						JOINT right_shoulder
						{
							OFFSET	93.9	-5.79999	48.7
							CHANNELS 3  Xrotation Yrotation Zrotation
							JOINT right_elbow
							{
								OFFSET	291.4	-30.8	15.2
								CHANNELS 3  Xrotation Yrotation Zrotation
								JOINT right_lowarm_twist
								{
									OFFSET	110.7	-3.89999	13.6
									CHANNELS 3  Xrotation Yrotation Zrotation
									JOINT right_hand
									{
										OFFSET	110.7	-3.89999	13.6
										CHANNELS 3  Xrotation Yrotation Zrotation
										JOINT right_ee
										{
											OFFSET	80.8	-5.10001	12.1
											CHANNELS 3  Xrotation Yrotation Zrotation
											End Site
											{
												OFFSET	1	0	0
											}
										}
									}
								}
							}
						}
					}
				}
			}
		}
	}
	JOINT left_hip
	{
		OFFSET	-82.8	-127.5	0.300001
		CHANNELS 3  Xrotation Yrotation Zrotation
		JOINT left_knee
		{
			OFFSET	-28.2	-396.7	2.2
			CHANNELS 3  Xrotation Yrotation Zrotation
			JOINT left_ankle
			{
				OFFSET	-11.7	-411.3	35.4
				CHANNELS 3  Xrotation Yrotation Zrotation
				JOINT left_toes
				{
					OFFSET	0	-60	-88.6
					CHANNELS 3  Xrotation Yrotation Zrotation
					JOINT left_foot_ee
					{
						OFFSET	-22.5	-16.5	-42.2
						CHANNELS 3  Xrotation Yrotation Zrotation
						End Site
						{
							OFFSET	1	0	0
						}
					}
				}
			}
		}
	}
	JOINT right_hip
	{
		OFFSET	82.8	-127.5	0.300001
		CHANNELS 3  Xrotation Yrotation Zrotation
		JOINT right_knee
		{
			OFFSET	28.2	-396.7	2.2
			CHANNELS 3  Xrotation Yrotation Zrotation
			JOINT right_ankle
			{
				OFFSET	11.7	-411.3	35.4
				CHANNELS 3  Xrotation Yrotation Zrotation
				JOINT right_toes
				{
					OFFSET	0	-60	-88.6
					CHANNELS 3  Xrotation Yrotation Zrotation
					JOINT right_foot_ee
					{
						OFFSET	22.5	-16.5	-42.2
						CHANNELS 3  Xrotation Yrotation Zrotation
						End Site
						{
							OFFSET	1	0	0
						}
					}
				}
			}
		}
	}
}
MOTION
Frames: 6
Frame Time: 0.02
1933.91 596.447 -1234.42 -40.9144 52.2615 39.553 9.23365 -0.162756 -0.0508289 9.23363 -0.159191 -0.0610824 9.23382 -0.155899 -0.0690548 9.23385 -0.164848 -0.0435668 -9.28068 5.24266 -2.10156 -9.29456 11.2821 -0.812456 -0.0 0.0 -0.0 -6.01591 18.5038 -7.00802 -26.8678 -67.8631 81.5959 0.230643 -6.51815 0.0131335 -1.88894 -0.0703736 0.230937 -11.1351 31.6287 -56.8445 -0.0 0.0 -0.0 6.06722 4.76638 -11.6373 -5.43817 33.3783 -65.8515 0.827661 22.2934 -0.163084 -65.3636 5.95633 -5.23661 -12.3118 -33.7628 67.2667 0.0 0.0 0.0 52.7134 -2.37957 -6.41379 -2.5082 0.0951158 0.373144 4.11748 2.23978 -0.599423 -18.0809 0.0 0.0 -0.0 0.0 -0.0 12.9269 3.23265 -4.67109 -17.0351 -0.319153 -2.58511 39.76 -9.29944 4.85055 -6.38917 0.0 0.0 0.0 0.0 0.0 
1905.34 599.74 -1241.2 -39.7252 53.2009 38.5631 9.08614 0.227871 -0.117259 9.08612 0.234871 -0.102522 9.08575 0.239989 -0.0898916 9.08581 0.22278 -0.126665 -9.99239 5.0284 -2.13063 -10.0138 10.9035 -0.823384 -0.0 0.0 -0.0 -7.06413 20.2635 -8.09395 -19.9464 -68.0967 89.3804 0.250813 -7.08261 0.015522 -2.6089 -0.0991973 0.318337 -11.0908 32.0479 -55.3502 -0.0 0.0 -0.0 5.71588 4.16826 -10.9436 -7.19276 32.0045 -66.1096 0.706926 19.2998 -0.120202 -63.7071 5.74705 -5.20155 -12.3101 -33.7988 67.0798 0.0 0.0 0.0 50.8097 -2.71538 -5.9966 -6.8857 0.221653 1.03287 5.66672 2.32871 -0.821012 -18.3159 0.0 0.0 -0.0 0.0 -0.0 12.4604 4.78047 -4.72485 -19.333 -0.302979 -2.93728 38.8559 -6.60954 4.75901 -6.05473 0.0 0.0 0.0 0.0 0.0 
1884.26 601.032 -1239.69 -38.6452 52.7762 37.493 8.93328 -0.0585575 -0.0475434 8.93328 -0.0554135 -0.0511732 8.93333 -0.0524712 -0.0541861 8.93333 -0.0603704 -0.0452192 -10.3964 4.32818 -2.10667 -10.4141 9.56896 -0.9416 -0.0 0.0 -0.0 -6.89933 20.2383 -7.85109 -17.4756 -68.2849 91.5739 0.278455 -7.8539 0.0191148 -2.21582 -0.0833241 0.270663 -11.0147 31.967 -54.6986 -0.0 0.0 -0.0 5.3115 4.13892 -10.1273 -7.35034 32.6667 -66.633 0.785831 21.2698 -0.147562 -64.7244 5.87546 -5.2238 -12.2946 -33.7646 66.9311 0.0 0.0 0.0 50.6683 -3.44542 -5.54253 -9.95773 0.280181 1.50059 5.64103 0.519247 -0.820402 -17.7984 0.0 0.0 -0.0 0.0 -0.0 13.1448 7.14291 -4.46338 -21.7988 -0.26993 -3.31416 39.3196 -10.0143 4.81636 -5.84136 0.0 0.0 0.0 0.0 0.0 
1848.72 601.586 -1241.62 -37.4934 52.8315 36.4279 8.7719 -0.379091 -0.204688 8.77185 -0.365298 -0.228396 8.77337 -0.35129 -0.249404 8.77349 -0.38627 -0.190794 -10.1103 3.57639 -2.1424 -10.1168 8.17822 -1.19067 -0.0 0.0 -0.0 -6.9154 19.7939 -8.0148 -17.7571 -68.3893 90.7678 0.285843 -8.05958 0.0201374 -2.03069 -0.0759618 0.248173 -10.7347 31.1093 -53.5677 -0.0 0.0 -0.0 4.67564 3.72867 -8.86651 -9.68249 32.9749 -67.1677 0.822535 22.1688 -0.161145 -66.6036 6.11355 -5.25887 -12.3412 -33.75 67.8999 0.0 0.0 0.0 50.462 -4.04445 -5.34614 -15.3601 0.322037 2.32814 5.75704 -0.549772 -0.83921 -16.7328 0.0 0.0 -0.0 0.0 -0.0 13.8128 10.5207 -3.95355 -26.8923 -0.150498 -4.08643 39.913 -15.2258 4.92828 -4.91702 0.0 0.0 0.0 0.0 0.0 
1823.6 604.816 -1244.06 -37.8591 53.6742 36.7228 8.6695 -0.543143 -0.093297 8.66935 -0.536106 -0.12767 8.6708 -0.52742 -0.159804 8.67118 -0.546039 -0.0745 -9.49457 3.18597 -1.9846 -9.49516 7.34132 -1.17564 -0.0 0.0 -0.0 -5.83201 21.5433 -5.87022 -20.7871 -70.7293 87.3256 0.194272 -5.49715 0.0093267 -2.46277 -0.093258 0.300626 -10.6319 31.0431 -52.638 -0.0 0.0 -0.0 4.12564 2.86524 -7.81344 -11.9163 32.4692 -67.503 0.818067 22.0599 -0.159463 -67.3475 6.20806 -5.27057 -12.3784 -33.8159 68.3532 0.0 0.0 0.0 48.6979 -5.68114 -4.3029 -19.7497 0.298533 3.00106 9.29051 -1.14206 -1.34052 -16.46 0.0 0.0 -0.0 0.0 -0.0 15.9225 12.8636 -4.46435 -31.4283 0.013287 -4.76313 39.6797 -21.1925 5.02766 -3.84489 0.0 0.0 0.0 0.0 0.0 
1800.32 611.459 -1251.55 -37.0731 54.5452 36.3862 8.53266 -0.654881 -0.0163954 8.53242 -0.652511 -0.0580358 8.5335 -0.647581 -0.098879 8.53408 -0.65507 0.00463978 -9.19446 2.90886 -1.85999 -9.19291 6.73762 -1.13866 -0.0 0.0 -0.0 -5.03939 22.5739 -4.44804 -23.7149 -72.3457 83.8373 0.143832 -4.07556 0.00511768 -2.77443 -0.105979 0.33838 -10.5609 31.0105 -51.9843 -0.0 0.0 -0.0 3.55247 2.10638 -6.72387 -13.9275 31.9686 -67.478 0.804025 21.7168 -0.154228 -67.8394 6.27065 -5.27764 -12.3999 -33.8652 68.5709 0.0 0.0 0.0 47.5233 -6.86325 -3.58645 -22.7901 0.252077 3.46523 11.7658 -1.55974 -1.68417 -16.2707 0.0 0.0 -0.0 0.0 -0.0 17.4542 14.4954 -4.85796 -34.6516 0.16202 -5.23526 39.47 -25.4652 5.13188 -3.11038 0.0 0.0 0.0 0.0 0.0 
